<svg id="Layer_1" width="250" height="250" data-name="Layer 1" xmlns="http://www.w3.org/2000/svg" viewBox="0 0 3000 3000"><defs><style>.cls-1{fill:#066938;}.cls-2{fill:#3b3a3a;}</style></defs><polygon class="cls-1" points="1155.17 935.23 877.05 1277.57 1155.17 1277.57 1155.17 1499.72 885.31 1499.72 885.27 1499.68 885.22 1499.72 615.41 1499.72 615.41 1277.52 893.49 935.18 615.41 935.18 615.41 713.02 1155.17 713.02 1155.17 935.23"/><polygon class="cls-1" points="885.27 1499.68 885.31 1499.72 885.22 1499.72 885.27 1499.68"/><polygon class="cls-1" points="1155.17 1827.91 1155.17 1924.13 615.41 1924.13 615.41 1827.91 885.22 1499.72 885.27 1499.68 885.31 1499.72 1155.17 1827.91"/><rect class="cls-1" x="615.4" y="2013.74" width="539.75" height="272.67"/><polygon class="cls-2" points="1776.72 1499.68 2385.09 2286.42 1763.49 2286.42 1155.17 1499.72 1155.17 1499.68 1326.93 1277.57 1378.79 1210.52 1763.49 713.02 2385.09 713.02 1776.72 1499.68"/><path class="cls-2" d="M2974.43,1416.34h-95.67a1368.33,1368.33,0,0,0-106.07-454.16c-69.56-164.46-169.16-312.13-296-439s-274.49-226.39-438.95-295.94c-170.27-72-351.14-108.54-537.55-108.54S1133,155.25,962.69,227.28C798.23,296.83,650.57,396.43,523.74,523.22s-226.39,274.5-296,439a1367.92,1367.92,0,0,0-104.91,436.48L6,1540.55c-14,17-1.93,42.56,20.07,42.56h95.67a1368.62,1368.62,0,0,0,106.06,454.16c69.56,164.46,169.16,312.13,296,438.95s274.49,226.39,439,296c170.28,72,351.14,108.54,537.55,108.54s367.28-36.52,537.55-108.54c164.46-69.56,312.12-169.16,438.95-296s226.39-274.49,296-438.95a1367.65,1367.65,0,0,0,104.91-436.48l116.89-141.89C3008.47,1441.91,2996.42,1416.34,2974.43,1416.34ZM1500.24,2765.16c-669.77,0-1219.64-523-1262.7-1182H328c22,0,34.09-25.58,20.07-42.56L238.19,1407.13C285.72,752.42,833.63,234.29,1500.24,234.29c669.77,0,1219.64,523,1262.7,1182.05h-90.47c-22,0-34.08,25.57-20.06,42.56l109.88,133.41C2714.76,2247,2166.85,2765.16,1500.24,2765.16Z"/></svg>