<svg id="Layer_1" data-name="Layer 1" xmlns="http://www.w3.org/2000/svg" viewBox="0 0 1920 1080"><defs><style>.cls-1{fill:#006837;}</style></defs><polygon class="cls-1" points="884.4 226.33 823.47 301.33 884.4 301.33 884.4 350 825.28 350 825.27 349.99 825.26 350 766.15 350 766.15 301.32 827.07 226.32 766.15 226.32 766.15 177.65 884.4 177.65 884.4 226.33"/><polygon class="cls-1" points="825.27 349.99 825.28 350 825.26 350 825.27 349.99"/><polygon class="cls-1" points="884.4 421.9 884.4 442.98 766.15 442.98 766.15 421.9 825.26 350 825.27 349.99 825.28 350 884.4 421.9"/><rect class="cls-1" x="766.15" y="462.61" width="118.25" height="59.74"/><polygon points="1020.57 349.99 1153.85 522.35 1017.67 522.35 884.4 350 884.4 349.99 922.03 301.33 933.39 286.64 1017.67 177.65 1153.85 177.65 1020.57 349.99"/><path d="M452.55,680l59.07,84.57H461.76l-36.84-54.24L410,730v34.59H367.65V611.84H410v62.21l46.27-62.21h49.07Z"/><path class="cls-1" d="M630.22,764.57l-8-20.66H564.41l-7.86,20.66h-44.7l61.77-152.85h39.53l61.76,152.85ZM577.77,709h31.11l-14.15-36.84-1.12-5.61h-.45l-1.24,5.61Z"/><path d="M688.62,611.84H731V764.57H688.62Z"/><path class="cls-1" d="M750.83,733.57,821.92,647H755.44V611.84H878l-.11,30.32-71.31,87.15h73.22v35.26H751.39Z"/><path d="M900.76,611.84H1011v37.39H943.1v20.33h57.95v35.15H943.1v22.35h68.95v37.51H900.76Z"/><path d="M1031.48,611.84h37.17L1132.33,696V611.84h42.23V764.57h-36.73l-64-84.45v84.45h-42.34Z"/><path d="M1209.26,765.53a20.19,20.19,0,0,1-7.64-27.69,19.41,19.41,0,0,1,7.64-7.3,25.61,25.61,0,0,1,22.85,0,19.37,19.37,0,0,1,7.7,7.3A19.72,19.72,0,0,1,1242.5,748a20.19,20.19,0,0,1-2.69,10.27,19.24,19.24,0,0,1-7.7,7.36,23.84,23.84,0,0,1-11.51,2.7A23,23,0,0,1,1209.26,765.53Z"/><path d="M1372.1,764.57l-8-20.66h-57.84l-7.86,20.66h-44.7l61.77-152.85H1355l61.77,152.85ZM1319.66,709h31.1l-14.15-36.84-1.12-5.61H1335l-1.23,5.61Z"/><path d="M1423.43,733.57,1494.51,647H1428V611.84h122.52l-.11,30.32-71.31,87.15h73.22v35.26H1424Z"/><path d="M837.32,786.7l-6.22,30.21a8.49,8.49,0,0,1-14.31,4.29l-5.53-5.53a172.33,172.33,0,0,1-226.43-8.28,10,10,0,0,1,13.69-14.58c55.23,51.86,140,54.73,198.51,8.62l-4.23-4.23a8.48,8.48,0,0,1,4.29-14.31l30.21-6.22a8.48,8.48,0,0,1,10,10Z"/></svg>